<mxfile host="65bd71144e">
    <diagram id="ID_ielu2CXIIAwnB6Mwa" name="Page-1">
        <mxGraphModel dx="956" dy="543" grid="1" gridSize="10" guides="1" tooltips="1" connect="1" arrows="1" fold="1" page="1" pageScale="1" pageWidth="850" pageHeight="1100" background="#ffffff" math="0" shadow="0">
            <root>
                <mxCell id="0"/>
                <mxCell id="1" parent="0"/>
                <mxCell id="4" value="&lt;font color=&quot;#cc0000&quot;&gt;用户空间&lt;/font&gt;" style="text;html=1;strokeColor=none;fillColor=none;align=center;verticalAlign=middle;whiteSpace=wrap;rounded=0;fillStyle=auto;" vertex="1" parent="1">
                    <mxGeometry x="280" y="160" width="60" height="30" as="geometry"/>
                </mxCell>
                <mxCell id="5" value="VFS" style="rounded=0;whiteSpace=wrap;html=1;fillStyle=auto;strokeColor=#000000;fontColor=#CC0000;fillColor=none;" vertex="1" parent="1">
                    <mxGeometry x="450" y="210" width="100" height="40" as="geometry"/>
                </mxCell>
                <mxCell id="7" value="内核协议栈" style="rounded=0;whiteSpace=wrap;html=1;fillStyle=auto;strokeColor=#000000;fontColor=#CC0000;fillColor=none;" vertex="1" parent="1">
                    <mxGeometry x="450" y="270" width="100" height="40" as="geometry"/>
                </mxCell>
                <mxCell id="8" value="NIC(内核网络接口)" style="rounded=0;whiteSpace=wrap;html=1;fillStyle=auto;strokeColor=#000000;fontColor=#CC0000;fillColor=none;" vertex="1" parent="1">
                    <mxGeometry x="450" y="340" width="100" height="40" as="geometry"/>
                </mxCell>
                <mxCell id="16" style="edgeStyle=none;html=1;exitX=1;exitY=0.5;exitDx=0;exitDy=0;entryX=0;entryY=1;entryDx=0;entryDy=0;strokeColor=#2D7600;fontColor=#CC0000;fillColor=#60a917;" edge="1" parent="1" source="9" target="14">
                    <mxGeometry relative="1" as="geometry"/>
                </mxCell>
                <mxCell id="17" value="DMA" style="edgeLabel;html=1;align=center;verticalAlign=middle;resizable=0;points=[];fontColor=#CC0000;" vertex="1" connectable="0" parent="16">
                    <mxGeometry x="0.2003" relative="1" as="geometry">
                        <mxPoint as="offset"/>
                    </mxGeometry>
                </mxCell>
                <mxCell id="9" value="网卡" style="rounded=0;whiteSpace=wrap;html=1;fillStyle=auto;strokeColor=#000000;fontColor=#CC0000;fillColor=none;" vertex="1" parent="1">
                    <mxGeometry x="450" y="410" width="100" height="40" as="geometry"/>
                </mxCell>
                <mxCell id="10" value="" style="endArrow=none;dashed=1;html=1;fontColor=#CC0000;strokeColor=#000099;" edge="1" parent="1">
                    <mxGeometry width="50" height="50" relative="1" as="geometry">
                        <mxPoint x="257" y="389" as="sourcePoint"/>
                        <mxPoint x="557" y="389" as="targetPoint"/>
                    </mxGeometry>
                </mxCell>
                <mxCell id="11" value="" style="endArrow=none;dashed=1;html=1;fontColor=#CC0000;strokeColor=#000099;" edge="1" parent="1">
                    <mxGeometry width="50" height="50" relative="1" as="geometry">
                        <mxPoint x="260" y="199.9999999999999" as="sourcePoint"/>
                        <mxPoint x="560" y="199.9999999999999" as="targetPoint"/>
                    </mxGeometry>
                </mxCell>
                <mxCell id="12" value="应用程序" style="rounded=0;whiteSpace=wrap;html=1;fillStyle=auto;strokeColor=#000000;fontColor=#CC0000;fillColor=none;" vertex="1" parent="1">
                    <mxGeometry x="450" y="150" width="100" height="40" as="geometry"/>
                </mxCell>
                <mxCell id="13" value="&lt;font color=&quot;#cc0000&quot;&gt;内核空间&lt;/font&gt;" style="text;html=1;strokeColor=none;fillColor=none;align=center;verticalAlign=middle;whiteSpace=wrap;rounded=0;fillStyle=auto;" vertex="1" parent="1">
                    <mxGeometry x="260" y="350" width="60" height="30" as="geometry"/>
                </mxCell>
                <mxCell id="19" style="edgeStyle=none;html=1;exitX=0;exitY=0;exitDx=0;exitDy=0;entryX=1;entryY=0.5;entryDx=0;entryDy=0;strokeColor=#000099;fontColor=#CC0000;" edge="1" parent="1" source="14" target="12">
                    <mxGeometry relative="1" as="geometry"/>
                </mxCell>
                <mxCell id="14" value="" style="rounded=0;whiteSpace=wrap;html=1;fillStyle=auto;strokeColor=#000000;fontColor=#CC0000;fillColor=none;" vertex="1" parent="1">
                    <mxGeometry x="640" y="210" width="100" height="180" as="geometry"/>
                </mxCell>
                <mxCell id="15" value="&lt;font color=&quot;#cc0000&quot;&gt;dpdk&lt;/font&gt;" style="text;html=1;strokeColor=none;fillColor=none;align=center;verticalAlign=middle;whiteSpace=wrap;rounded=0;fillStyle=auto;" vertex="1" parent="1">
                    <mxGeometry x="660" y="290" width="60" height="30" as="geometry"/>
                </mxCell>
                <mxCell id="20" value="&lt;font color=&quot;#cc0000&quot;&gt;fd&lt;/font&gt;" style="text;html=1;strokeColor=none;fillColor=none;align=center;verticalAlign=middle;whiteSpace=wrap;rounded=0;fillStyle=auto;" vertex="1" parent="1">
                    <mxGeometry x="550" y="210" width="20" height="20" as="geometry"/>
                </mxCell>
                <mxCell id="21" value="&lt;font color=&quot;#cc0000&quot;&gt;uio&lt;br&gt;vfio&lt;br&gt;&lt;/font&gt;" style="text;html=1;strokeColor=none;fillColor=none;align=center;verticalAlign=middle;whiteSpace=wrap;rounded=0;fillStyle=auto;" vertex="1" parent="1">
                    <mxGeometry x="580" y="415" width="60" height="30" as="geometry"/>
                </mxCell>
                <mxCell id="28" style="edgeStyle=none;html=1;exitX=1;exitY=0.5;exitDx=0;exitDy=0;entryX=0;entryY=0.5;entryDx=0;entryDy=0;strokeColor=#000099;fontColor=#CC0000;" edge="1" parent="1" source="22" target="24">
                    <mxGeometry relative="1" as="geometry"/>
                </mxCell>
                <mxCell id="22" value="协议栈" style="rounded=0;whiteSpace=wrap;html=1;fillStyle=auto;strokeColor=#000000;fontColor=#CC0000;fillColor=none;" vertex="1" parent="1">
                    <mxGeometry x="310" y="550" width="100" height="40" as="geometry"/>
                </mxCell>
                <mxCell id="27" style="edgeStyle=none;html=1;exitX=1;exitY=0.5;exitDx=0;exitDy=0;entryX=0;entryY=0.5;entryDx=0;entryDy=0;strokeColor=#000099;fontColor=#CC0000;" edge="1" parent="1" source="23" target="22">
                    <mxGeometry relative="1" as="geometry"/>
                </mxCell>
                <mxCell id="23" value="网卡" style="ellipse;whiteSpace=wrap;html=1;labelBackgroundColor=none;fillStyle=auto;strokeColor=#000000;fontColor=#CC0000;fillColor=none;" vertex="1" parent="1">
                    <mxGeometry x="180" y="545" width="50" height="50" as="geometry"/>
                </mxCell>
                <mxCell id="24" value="应用程序" style="rounded=0;whiteSpace=wrap;html=1;fillStyle=auto;strokeColor=#000000;fontColor=#CC0000;fillColor=none;" vertex="1" parent="1">
                    <mxGeometry x="480" y="550" width="100" height="40" as="geometry"/>
                </mxCell>
                <mxCell id="25" value="" style="rounded=0;whiteSpace=wrap;html=1;fillStyle=auto;strokeColor=#000000;fontColor=#CC0000;fillColor=none;movable=1;resizable=1;rotatable=1;deletable=1;editable=1;connectable=1;" vertex="1" parent="1">
                    <mxGeometry x="250" y="690" width="240" height="40" as="geometry"/>
                </mxCell>
                <mxCell id="26" value="dpdk" style="text;html=1;strokeColor=none;fillColor=none;align=center;verticalAlign=middle;whiteSpace=wrap;rounded=0;labelBackgroundColor=none;fillStyle=auto;fontColor=#CC0000;movable=1;resizable=1;rotatable=1;deletable=1;editable=1;connectable=1;" vertex="1" parent="1">
                    <mxGeometry x="260" y="730" width="30" height="20" as="geometry"/>
                </mxCell>
                <mxCell id="29" value="sk_buff" style="text;html=1;strokeColor=none;fillColor=none;align=center;verticalAlign=middle;whiteSpace=wrap;rounded=0;labelBackgroundColor=none;fillStyle=auto;fontColor=#CC0000;" vertex="1" parent="1">
                    <mxGeometry x="240" y="550" width="45" height="15" as="geometry"/>
                </mxCell>
                <mxCell id="32" value="DMA" style="text;html=1;strokeColor=none;fillColor=none;align=center;verticalAlign=middle;whiteSpace=wrap;rounded=0;labelBackgroundColor=none;fillStyle=auto;fontColor=#CC0000;" vertex="1" parent="1">
                    <mxGeometry x="225" y="610" width="45" height="15" as="geometry"/>
                </mxCell>
                <mxCell id="33" value="" style="shape=flexArrow;endArrow=classic;startArrow=classic;html=1;strokeColor=#000099;fontColor=#CC0000;entryX=1;entryY=1;entryDx=0;entryDy=0;exitX=0;exitY=0;exitDx=0;exitDy=0;" edge="1" parent="1" source="25" target="23">
                    <mxGeometry width="100" height="100" relative="1" as="geometry">
                        <mxPoint x="310" y="900" as="sourcePoint"/>
                        <mxPoint x="410" y="800" as="targetPoint"/>
                    </mxGeometry>
                </mxCell>
                <mxCell id="34" value="" style="rounded=0;whiteSpace=wrap;html=1;labelBackgroundColor=none;fillStyle=auto;strokeColor=#000000;fontColor=#CC0000;fillColor=none;movable=1;resizable=1;rotatable=1;deletable=1;editable=1;connectable=1;" vertex="1" parent="1">
                    <mxGeometry x="260" y="700" width="60" height="20" as="geometry"/>
                </mxCell>
                <mxCell id="40" value="" style="endArrow=classic;startArrow=classic;html=1;strokeColor=#000099;fontColor=#CC0000;entryX=0.5;entryY=1;entryDx=0;entryDy=0;exitX=0.25;exitY=0;exitDx=0;exitDy=0;" edge="1" parent="1" source="25" target="44">
                    <mxGeometry width="50" height="50" relative="1" as="geometry">
                        <mxPoint x="370" y="690" as="sourcePoint"/>
                        <mxPoint x="420" y="640" as="targetPoint"/>
                    </mxGeometry>
                </mxCell>
                <mxCell id="43" value="1. 如何网卡映射到内存：DMA&lt;br&gt;2. 如何把网络数据写回到内核：KNI (dpdk结构体 mbuf &amp;lt;----&amp;gt; sk_buf)&lt;br&gt;3. 如何解析" style="text;html=1;strokeColor=none;fillColor=none;align=left;verticalAlign=middle;whiteSpace=wrap;rounded=0;labelBackgroundColor=none;fillStyle=auto;fontColor=#CC0000;" vertex="1" parent="1">
                    <mxGeometry x="360" y="780" width="390" height="80" as="geometry"/>
                </mxCell>
                <mxCell id="46" style="edgeStyle=none;html=1;exitX=0.5;exitY=0;exitDx=0;exitDy=0;entryX=0.25;entryY=1;entryDx=0;entryDy=0;strokeColor=#000099;fontSize=4;fontColor=#CC0000;" edge="1" parent="1" source="44" target="22">
                    <mxGeometry relative="1" as="geometry"/>
                </mxCell>
                <mxCell id="44" value="&lt;font style=&quot;font-size: 4px;&quot;&gt;t_fifo_que&lt;/font&gt;" style="ellipse;whiteSpace=wrap;html=1;aspect=fixed;labelBackgroundColor=none;fillStyle=auto;strokeColor=#000000;fontColor=#CC0000;fillColor=none;" vertex="1" parent="1">
                    <mxGeometry x="330" y="620" width="20" height="20" as="geometry"/>
                </mxCell>
                <mxCell id="47" style="edgeStyle=none;html=1;exitX=0.5;exitY=0;exitDx=0;exitDy=0;entryX=0.75;entryY=1;entryDx=0;entryDy=0;strokeColor=#000099;fontSize=4;fontColor=#CC0000;" edge="1" parent="1" source="45" target="22">
                    <mxGeometry relative="1" as="geometry"/>
                </mxCell>
                <mxCell id="45" value="&lt;font style=&quot;font-size: 4px;&quot;&gt;r_fifo_que&lt;/font&gt;" style="ellipse;whiteSpace=wrap;html=1;aspect=fixed;labelBackgroundColor=none;fillStyle=auto;strokeColor=#000000;fontColor=#CC0000;fillColor=none;" vertex="1" parent="1">
                    <mxGeometry x="370" y="620" width="20" height="20" as="geometry"/>
                </mxCell>
                <mxCell id="48" value="" style="endArrow=classic;startArrow=classic;html=1;strokeColor=#000099;fontSize=4;fontColor=#CC0000;exitX=0.367;exitY=0.009;exitDx=0;exitDy=0;exitPerimeter=0;entryX=0.5;entryY=1;entryDx=0;entryDy=0;" edge="1" parent="1" source="25" target="45">
                    <mxGeometry width="50" height="50" relative="1" as="geometry">
                        <mxPoint x="400" y="690" as="sourcePoint"/>
                        <mxPoint x="450" y="640" as="targetPoint"/>
                    </mxGeometry>
                </mxCell>
                <mxCell id="49" value="" style="rounded=0;whiteSpace=wrap;html=1;labelBackgroundColor=none;fillStyle=auto;strokeColor=#000000;fontSize=4;fontColor=#CC0000;fillColor=none;" vertex="1" parent="1">
                    <mxGeometry x="300" y="610" width="120" height="60" as="geometry"/>
                </mxCell>
                <mxCell id="51" value="kni" style="text;html=1;strokeColor=none;fillColor=none;align=center;verticalAlign=middle;whiteSpace=wrap;rounded=0;labelBackgroundColor=none;fillStyle=auto;fontSize=12;fontColor=#CC0000;" vertex="1" parent="1">
                    <mxGeometry x="300" y="610" width="30" height="20" as="geometry"/>
                </mxCell>
            </root>
        </mxGraphModel>
    </diagram>
</mxfile>